<svg xmlns="http://www.w3.org/2000/svg" width="64" height="64" viewBox="0 0 128 128"><path fill="#e6e7e8" d="M105.187,108.318V99.057A30.1,30.1,0,0,0,76.744,69.041a23.546,23.546,0,0,0,12.29-15.779,3.3,3.3,0,0,0,.9.142c2.451,0,4.37-2.528,4.37-5.757a6.733,6.733,0,0,0-1.323-4.156V33.211a20.841,20.841,0,0,0-7.978-16.4h.027L71.859,6.631l.266,3.489L66,5.741,60.937,9.974l-.312-2.563-4,3.938V9.1l-9.731,7.783c-.136.108-.274.214-.407.325l-.177.142h.021a20.833,20.833,0,0,0-7.316,15.862v10.28a6.732,6.732,0,0,0-1.322,4.156c0,3.229,1.919,5.757,4.369,5.757a3.316,3.316,0,0,0,.905-.142A23.544,23.544,0,0,0,55.256,69.041,30.1,30.1,0,0,0,26.813,99.057v9.261a9,9,0,0,0,1,17.941h76.374a9,9,0,0,0,1-17.941Z"/><path fill="#fa759e" d="M53.128,68.057V66h-.252A29.062,29.062,0,0,0,23.814,95.057v10.2a8,8,0,0,1,7.331,4.8V79.429a4,4,0,0,1,4-4H57.064A8.864,8.864,0,0,1,53.128,68.057Z"/><path fill="#fa759e" d="M71.124,66h-.252v2.062a8.864,8.864,0,0,1-3.936,7.372H88.855a4,4,0,0,1,4,4v30.632a8,8,0,0,1,7.331-4.8v-10.2A29.062,29.062,0,0,0,71.124,66Z"/><path fill="#fff" d="M53.128,68.057V66h-.252A29.062,29.062,0,0,0,23.814,95.057v3A28.949,28.949,0,0,1,31.22,78.682a3.988,3.988,0,0,1,3.355-3.2A28.936,28.936,0,0,1,52.876,69h.311A9.065,9.065,0,0,1,53.128,68.057Z"/><path fill="#fff" d="M71.124,66h-.252v2.062a9.065,9.065,0,0,1-.059.938h.311a28.936,28.936,0,0,1,18.3,6.491,3.988,3.988,0,0,1,3.355,3.2,28.949,28.949,0,0,1,7.406,19.375v-3A29.062,29.062,0,0,0,71.124,66Z"/><path fill="#fff" d="M57.064,75.429h9.872a8.864,8.864,0,0,0,3.936-7.372V64.823a22.4,22.4,0,0,1-8.727,1.759h-.29a22.4,22.4,0,0,1-8.727-1.759v3.234A8.864,8.864,0,0,0,57.064,75.429Z"/><path fill="#fff" d="M85.938,38.891a2.55,2.55,0,0,0-1.33.388v4.839a22.6,22.6,0,0,1-.3,3.666,2.632,2.632,0,0,0,1.632.62c1.861,0,3.369-2.129,3.369-4.756S87.8,38.891,85.938,38.891Z"/><path fill="#fff" d="M39.392,44.118V39.279a2.55,2.55,0,0,0-1.33-.388c-1.861,0-3.369,2.13-3.369,4.757S36.2,48.4,38.062,48.4a2.632,2.632,0,0,0,1.632-.62A22.6,22.6,0,0,1,39.392,44.118Z"/><path fill="#fff" d="M79.038,21.95a7.581,7.581,0,0,0-7.833-1.744A30.179,30.179,0,0,1,62,21.487a30.179,30.179,0,0,1-9.2-1.281,7.581,7.581,0,0,0-7.833,1.744,19.256,19.256,0,0,0-5.57,13.571v8.6A22.464,22.464,0,0,0,61.855,66.582h.29A22.464,22.464,0,0,0,84.608,44.118v-8.6A19.256,19.256,0,0,0,79.038,21.95Z"/><path fill="#d4fbff" d="M47.861,31.678h8.876a3.477,3.477,0,0,1,3.477,3.477v5.06a5.89,5.89,0,0,1-5.89,5.89H48.677a5.89,5.89,0,0,1-5.89-5.89V36.751A5.074,5.074,0,0,1,47.861,31.678Z"/><path fill="#d4fbff" d="M69.677,31.678h5.646a5.89,5.89,0,0,1,5.89,5.89v6.249A2.287,2.287,0,0,1,78.926,46.1H68.861a5.074,5.074,0,0,1-5.074-5.074V37.568a5.89,5.89,0,0,1,5.89-5.89Z" transform="rotate(-180 72.5 38.891)"/><path fill="#6dc9f7" d="M92.342,114.828a7.975,7.975,0,0,1,.513-4.767V79.429a4,4,0,0,0-4-4H35.145a4,4,0,0,0-4,4v30.632a7.975,7.975,0,0,1,.513,4.767Z"/><path fill="#d4fbff" d="M35.5,114.828V84.713a4,4,0,0,1,4-4h45a4,4,0,0,1,4,4v30.115Z"/><path fill="#0089ef" d="M92.342,114.828H31.658a8.012,8.012,0,0,1-4.687,5.781,3.976,3.976,0,0,0,2.174.649h65.71a3.976,3.976,0,0,0,2.174-.649A8.012,8.012,0,0,1,92.342,114.828Z"/><circle cx="23.814" cy="113.258" r="8" fill="#fff"/><circle cx="100.186" cy="113.258" r="8" fill="#fff"/><path fill="#3a2c60" d="M52.026,38.563a2.261,2.261,0,1,0,2.261,2.261A2.261,2.261,0,0,0,52.026,38.563Z"/><path fill="#3a2c60" d="M71.974,38.563a2.261,2.261,0,1,0,2.261,2.261A2.261,2.261,0,0,0,71.974,38.563Z"/><path fill="#3a2c60" d="M62,52.886a3.575,3.575,0,0,0,3.571-3.571V47.808a1,1,0,1,0-2,0v1.507a1.571,1.571,0,0,1-3.142,0V47.808a1,1,0,1,0-2,0v1.507A3.575,3.575,0,0,0,62,52.886Z"/><path fill="#3a2c60" d="M75.024,35.246,70.6,34.474a1,1,0,1,0-.344,1.971l4.427.772a1.131,1.131,0,0,0,.173.014,1,1,0,0,0,.17-1.985Z"/><path fill="#3a2c60" d="M53.4,34.474l-4.427.772a1,1,0,0,0,.171,1.985,1.131,1.131,0,0,0,.173-.014l4.427-.772a1,1,0,1,0-.344-1.971Z"/><path fill="#3a2c60" d="M67.807,56.085a1,1,0,1,0-1.594-1.207A5.558,5.558,0,0,1,62,56.8a5.361,5.361,0,0,1-4.2-1.905,1,1,0,0,0-1.618,1.175A7.37,7.37,0,0,0,62,58.8,7.577,7.577,0,0,0,67.807,56.085Z"/><path fill="#3a2c60" d="M35.5,104.838a1,1,0,0,0,1-1v-6.5a1,1,0,0,0-2,0v6.5A1,1,0,0,0,35.5,104.838Z"/><path fill="#3a2c60" d="M46.2,99.869l8.88,3.849a1.576,1.576,0,0,0,2.2-1.446v-.027a1.575,1.575,0,0,0-1-1.466l-7.673-3.021,7.662-2.952a1.576,1.576,0,0,0,1.009-1.471v-.043a1.576,1.576,0,0,0-2.2-1.446L46.2,95.7a2.263,2.263,0,0,0-1.363,2.075v.024A2.261,2.261,0,0,0,46.2,99.869Z"/><path fill="#3a2c60" d="M59.7,107.273a1.46,1.46,0,0,0,1.768-1.079l3.905-16.135a1.464,1.464,0,0,0-2.847-.688l-3.905,16.135A1.465,1.465,0,0,0,59.7,107.273Z"/><path fill="#3a2c60" d="M68.925,103.705l8.881-3.867a2.261,2.261,0,0,0-.007-4.15L68.92,91.857a1.576,1.576,0,1,0-1.193,2.917l7.69,2.976-7.7,3.021a1.577,1.577,0,0,0-1,1.467v.022A1.576,1.576,0,0,0,68.925,103.705Z"/><path fill="#3a2c60" d="M101.187,104.318V95.057A30.1,30.1,0,0,0,72.744,65.041,23.545,23.545,0,0,0,85.032,49.268a3.2,3.2,0,0,0,.906.136c2.451,0,4.37-2.528,4.37-5.757a6.733,6.733,0,0,0-1.323-4.156V29.211a20.841,20.841,0,0,0-7.978-16.4h.027L67.859,2.631l.266,3.489L62,1.741,56.937,5.974l-.312-2.563-4,3.938V5.1l-9.731,7.783c-.136.108-.274.214-.407.325l-.177.142h.021a20.833,20.833,0,0,0-7.316,15.862v10.28a6.732,6.732,0,0,0-1.322,4.156c0,3.229,1.919,5.757,4.369,5.757a3.2,3.2,0,0,0,.906-.136A23.545,23.545,0,0,0,51.256,65.041,30.1,30.1,0,0,0,22.813,95.057v9.261a9,9,0,0,0,1,17.941h76.374a9,9,0,0,0,1-17.941Zm-2,0a8.975,8.975,0,0,0-5.332,2.552V79.428a4.994,4.994,0,0,0-.093-.929,27.905,27.905,0,0,1,5.425,16.558Zm-27.315-37.3A27.955,27.955,0,0,1,90.409,74.7a4.943,4.943,0,0,0-1.554-.272H69.506a9.788,9.788,0,0,0,2.366-6.372Zm-2.018-.741c.006,0,.013.007.018,0v1.777a7.835,7.835,0,0,1-3.294,6.372H57.422a7.835,7.835,0,0,1-3.294-6.372V66.279c.007,0,.017,0,.025,0a23.369,23.369,0,0,0,7.7,1.3h.29A23.33,23.33,0,0,0,69.854,66.274Zm-15.36,8.154H35.145a4.943,4.943,0,0,0-1.554.272,27.953,27.953,0,0,1,18.537-7.685v1.041A9.788,9.788,0,0,0,54.494,74.428Zm-19.349,2h53.71a3,3,0,0,1,3,3v30.438a8.951,8.951,0,0,0-.668,3.393c0,.192.016.38.028.569H89.5V84.713a5.006,5.006,0,0,0-5-5h-45a5.006,5.006,0,0,0-5,5v8.914a1,1,0,1,0,2,0V84.713a3,3,0,0,1,3-3h45a3,3,0,0,1,3,3v29.115h-51v-6.513a1,1,0,0,0-2,0v6.513H32.785c.012-.189.028-.377.028-.569a8.951,8.951,0,0,0-.668-3.393V79.428A3,3,0,0,1,35.145,76.428Zm-2.71,39.4h59.13a9.025,9.025,0,0,0,2.977,4.431H29.458A9.025,9.025,0,0,0,32.435,115.828ZM82.193,36.334a6.078,6.078,0,0,0-6.053-5.657H66.074a3.292,3.292,0,0,0-3.288,3.288v.766H61.171a4.47,4.47,0,0,0-4.435-4.054H47.86a6.076,6.076,0,0,0-6.052,5.656l-1.416.405V35.52a18.216,18.216,0,0,1,5.281-12.868,6.356,6.356,0,0,1,4.556-1.867,7.117,7.117,0,0,1,2.25.37A31.223,31.223,0,0,0,62,22.487a31.223,31.223,0,0,0,9.521-1.332,6.555,6.555,0,0,1,6.8,1.5A18.215,18.215,0,0,1,83.608,35.52v1.218Zm-1.979.418v3.463A4.9,4.9,0,0,1,75.323,45.1H69.677a4.9,4.9,0,0,1-4.891-4.889v-6.25a1.29,1.29,0,0,1,1.288-1.288H76.14A4.08,4.08,0,0,1,80.214,36.752Zm-21-1.6v5.06a4.894,4.894,0,0,1-4.89,4.889H48.677a4.894,4.894,0,0,1-4.89-4.889V36.752a4.079,4.079,0,0,1,4.073-4.075h8.876A2.48,2.48,0,0,1,59.213,35.155Zm26.179,12.13,0,0a23.586,23.586,0,0,0,.219-3.163V39.931c1.383-.337,2.7,1.505,2.7,3.716C88.308,45.969,86.881,47.925,85.392,47.285Zm-46.784,0c-1.494.64-2.915-1.316-2.915-3.638,0-2.036,1.084-3.756,2.369-3.756a1.432,1.432,0,0,1,.33.04v4.187a23.586,23.586,0,0,0,.219,3.163Zm1.784-3.167v-5.3l1.395-.4v1.8a6.9,6.9,0,0,0,6.89,6.889h5.646a6.9,6.9,0,0,0,6.89-6.889V36.731h1.573v3.484A6.9,6.9,0,0,0,69.677,47.1h5.646a6.9,6.9,0,0,0,6.891-6.889v-1.8l1.394.4v5.3A21.488,21.488,0,0,1,62.145,65.582h-.29A21.488,21.488,0,0,1,40.392,44.118ZM30.239,78.5a4.91,4.91,0,0,0-.094.929V106.87a8.975,8.975,0,0,0-5.332-2.552V95.057A27.906,27.906,0,0,1,30.239,78.5Zm-13.426,34.76a7,7,0,1,1,7,7A7.008,7.008,0,0,1,16.813,113.259Zm83.374,7a7,7,0,1,1,7-7A7.008,7.008,0,0,1,100.187,120.259Z"/></svg>